<svg width="12" height="7" viewBox="0 0 12 7" fill="none" xmlns="http://www.w3.org/2000/svg">
<path d="M10.8723 6.29252C10.7797 6.38522 10.6699 6.45877 10.5489 6.50895C10.4279 6.55913 10.2982 6.58496 10.1673 6.58496C10.0363 6.58496 9.9066 6.55913 9.78563 6.50895C9.66466 6.45877 9.55477 6.38522 9.46225 6.29252L5.58225 2.41252L1.70225 6.29252C1.51528 6.47949 1.26168 6.58454 0.997254 6.58454C0.732828 6.58454 0.47923 6.47949 0.292253 6.29252C0.105275 6.10554 0.00023365 5.85194 0.00023365 5.58752C0.00023365 5.32309 0.105275 5.06949 0.292253 4.88252L4.88225 0.292517C4.97477 0.199813 5.08466 0.126266 5.20563 0.0760841C5.3266 0.0259027 5.45628 7.34329e-05 5.58725 7.34329e-05C5.71822 7.34329e-05 5.8479 0.0259027 5.96888 0.0760841C6.08985 0.126266 6.19974 0.199813 6.29225 0.292517L10.8823 4.88252C11.2623 5.26252 11.2623 5.90252 10.8723 6.29252Z" fill="#375F77"/>
</svg>
